<svg width="24" height="24" viewBox="0 0 24 24" fill="none" xmlns="http://www.w3.org/2000/svg">
<path d="M22.6882 9.04049C22.4109 8.68661 21.9949 8.4836 21.5468 8.4836H17.5025L15.3094 3.37555C15.1734 3.05884 14.8108 2.91411 14.4994 3.0525C14.188 3.1908 14.0458 3.55974 14.1818 3.87649L16.1598 8.48364H8.84022L10.8182 3.87649C10.9542 3.55974 10.812 3.19085 10.5006 3.0525C10.1893 2.91411 9.82656 3.05876 9.69059 3.37555L7.49753 8.48364H3.45323C3.00509 8.48364 2.58907 8.68661 2.31176 9.04053C2.03954 9.38799 1.93909 9.83466 2.03618 10.2661L4.19594 19.862C4.34675 20.5321 4.92946 21 5.61299 21H19.387C20.0705 21 20.6532 20.5321 20.8041 19.862L22.9638 10.2661C23.0609 9.83461 22.9605 9.38795 22.6882 9.04049ZM19.387 19.7483H5.61299C5.50852 19.7483 5.41701 19.6786 5.3954 19.5826L3.23564 9.98681C3.2187 9.91151 3.24712 9.85485 3.27403 9.8206C3.29897 9.78872 3.35545 9.73528 3.45323 9.73528H6.96018L6.79903 10.1106C6.66307 10.4274 6.80523 10.7963 7.11662 10.9346C7.19676 10.9703 7.28027 10.9871 7.36251 10.9871C7.59966 10.9871 7.82565 10.8468 7.92664 10.6116L8.30287 9.73536H16.6972L17.0734 10.6116C17.1744 10.8469 17.4004 10.9871 17.6376 10.9871C17.7198 10.9871 17.8033 10.9703 17.8835 10.9346C18.1949 10.7963 18.3371 10.4274 18.201 10.1106L18.0399 9.73528H21.5469C21.6446 9.73528 21.7011 9.78872 21.7261 9.8206C21.7529 9.85489 21.7814 9.91155 21.7644 9.98677L19.6047 19.5826C19.583 19.6786 19.4915 19.7483 19.387 19.7483Z" fill="#E6EFF6" stroke="#E6EFF6" stroke-width="0.5"/>
<path d="M8.5 12C8.22387 12 8 12.2878 8 12.6429V17.3571C8 17.7122 8.22387 18 8.5 18C8.77613 18 9 17.7122 9 17.3571V12.6429C9 12.2878 8.77617 12 8.5 12Z" fill="#E6EFF6" stroke="#E6EFF6" stroke-width="0.5"/>
<path d="M12.5 12C12.2239 12 12 12.2878 12 12.6429V17.3571C12 17.7122 12.2239 18 12.5 18C12.7761 18 13 17.7122 13 17.3571V12.6429C13 12.2878 12.7761 12 12.5 12Z" fill="#E6EFF6" stroke="#E6EFF6" stroke-width="0.5"/>
<path d="M16.5 12C16.2239 12 16 12.2878 16 12.6429V17.3571C16 17.7122 16.2239 18 16.5 18C16.7761 18 17 17.7122 17 17.3571V12.6429C17 12.2878 16.7761 12 16.5 12Z" fill="#E6EFF6" stroke="#E6EFF6" stroke-width="0.5"/>
</svg>
