<svg width="24" height="24" viewBox="0 0 24 24" fill="none" xmlns="http://www.w3.org/2000/svg">
<path d="M12.2453 2C9.35305 2 7 4.35305 7 7.24531C7 10.1376 9.35305 12.4906 12.2453 12.4906C15.1376 12.4906 17.4906 10.1376 17.4906 7.24531C17.4906 4.35305 15.1376 2 12.2453 2ZM12.2453 11.325C9.99577 11.325 8.16562 9.49485 8.16562 7.24531C8.16562 4.99577 9.99577 3.16562 12.2453 3.16562C14.4949 3.16562 16.325 4.99577 16.325 7.24531C16.325 9.49485 14.4949 11.325 12.2453 11.325Z" fill="#E6EFF6" stroke="#E6EFF6" stroke-width="0.5"/>
<path d="M18.7186 16.196C17.2402 14.7799 15.2804 14 13.2 14H10.8C8.71968 14 6.75976 14.7799 5.28136 16.196C3.8102 17.6052 3 19.4654 3 21.434C3 21.7466 3.26864 22 3.6 22H20.4C20.7314 22 21 21.7466 21 21.434C21 19.4654 20.1898 17.6052 18.7186 16.196ZM4.2264 20.8679C4.527 17.6571 7.36044 15.1321 10.8 15.1321H13.2C16.6396 15.1321 19.473 17.6571 19.7736 20.8679H4.2264Z" fill="#E6EFF6" stroke="#E6EFF6" stroke-width="0.5"/>
</svg>
